<?xml version="1.0" standalone="no"?>
<!DOCTYPE svg PUBLIC "-//W3C//DTD SVG 20010904//EN"
 "http://www.w3.org/TR/2001/REC-SVG-20010904/DTD/svg10.dtd">
<svg version="1.0" xmlns="http://www.w3.org/2000/svg"
 width="323.000000pt" height="323.000000pt" viewBox="0 0 323.000000 323.000000"
 preserveAspectRatio="xMidYMid meet">
<metadata>
Created by potrace 1.14, written by Peter Selinger 2001-2017
</metadata>
<g transform="translate(0.000000,323.000000) scale(0.100000,-0.100000)"
fill="#000000" stroke="none">
<path d="M1559 3200 c-6 -16 -15 -30 -20 -30 -5 0 -9 -4 -9 -9 0 -6 -29 -60
-65 -121 -36 -61 -65 -113 -65 -115 0 -2 -22 -40 -48 -84 -29 -48 -52 -77 -58
-72 -5 5 -25 18 -45 29 -70 39 -84 47 -89 52 -3 3 -16 11 -30 18 -14 7 -42 22
-62 35 -21 12 -61 35 -90 51 -29 16 -65 37 -80 48 -15 11 -43 22 -61 25 -59 9
-60 4 -60 -302 l-1 -274 -271 2 c-148 0 -276 -3 -283 -7 -26 -16 -30 -49 -11
-83 38 -66 57 -99 88 -151 17 -29 31 -57 31 -62 0 -6 3 -10 8 -10 4 0 12 -10
18 -23 16 -35 58 -111 64 -117 3 -3 16 -22 28 -43 l21 -37 -32 -15 c-18 -8
-54 -29 -82 -45 -27 -17 -59 -35 -70 -41 -11 -5 -38 -21 -60 -34 -22 -14 -49
-29 -60 -35 -11 -6 -42 -24 -70 -41 -27 -16 -60 -35 -72 -41 -18 -9 -23 -20
-23 -52 0 -40 2 -43 58 -74 31 -18 75 -43 97 -56 22 -14 56 -33 75 -43 49 -27
121 -68 186 -107 47 -28 52 -35 39 -46 -8 -7 -15 -16 -15 -20 0 -8 -80 -151
-90 -160 -3 -3 -14 -23 -26 -45 -11 -22 -44 -80 -72 -129 -29 -49 -52 -99 -52
-111 0 -45 13 -47 304 -47 l273 0 0 -274 c0 -208 3 -277 13 -288 24 -30 59
-20 155 42 11 6 27 15 35 19 8 4 43 24 78 45 34 21 65 38 69 38 3 0 14 6 22
14 9 8 23 16 31 18 8 2 19 7 25 11 24 19 81 51 96 54 14 2 50 -54 48 -73 0 -4
3 -10 8 -13 6 -3 25 -34 44 -67 19 -34 66 -116 104 -183 l70 -121 40 0 c40 0
42 1 78 67 21 38 46 82 56 98 10 17 29 50 43 75 14 25 45 79 70 120 24 41 48
84 52 95 5 13 10 15 13 8 3 -7 9 -13 15 -13 5 0 37 -16 71 -36 34 -20 76 -44
92 -54 17 -9 86 -49 153 -89 68 -39 133 -71 146 -71 46 0 48 12 48 304 l0 274
274 0 c204 0 278 3 289 12 25 20 17 56 -25 126 -22 36 -40 68 -40 70 0 2 -18
33 -40 69 -22 36 -40 67 -40 70 0 3 -16 29 -35 60 -20 30 -38 63 -42 73 -3 9
-12 24 -19 33 -14 16 -12 17 149 108 37 21 47 27 167 96 36 21 82 47 103 58
33 19 37 25 37 61 l0 41 -121 70 c-133 77 -136 79 -261 149 l-86 49 45 76 c25
42 57 96 71 121 14 25 36 62 49 82 12 21 23 39 23 42 0 2 17 33 39 68 47 77
52 97 29 122 -16 18 -35 19 -292 19 l-275 0 1 274 c0 291 -1 303 -48 303 -13
0 -77 -31 -143 -70 -66 -38 -125 -70 -130 -70 -5 0 -11 -4 -13 -8 -1 -5 -45
-32 -96 -61 -75 -43 -95 -51 -107 -41 -8 7 -15 16 -15 21 0 5 -15 32 -33 61
-18 29 -39 67 -47 83 -8 17 -18 32 -21 35 -3 3 -19 30 -36 60 -28 51 -40 72
-89 157 -17 29 -24 33 -62 33 -39 0 -44 -3 -53 -30z m71 -96 c0 -8 4 -14 9
-14 5 0 14 -12 20 -27 6 -16 21 -44 32 -63 63 -103 159 -269 159 -273 0 -7
-94 -62 -99 -58 -2 1 -7 -1 -10 -6 -8 -11 -36 -28 -88 -54 -46 -23 -35 -26
-149 41 -23 14 -61 35 -83 48 -42 23 -47 31 -32 48 5 5 20 30 35 57 63 114 79
142 85 147 4 3 12 16 19 30 6 14 21 41 33 60 11 19 27 48 35 63 15 28 34 29
34 1z m-710 -209 c19 -12 55 -33 80 -47 25 -14 74 -43 110 -63 36 -21 86 -49
111 -63 l47 -24 -17 -32 c-9 -17 -19 -32 -23 -34 -5 -2 -8 -8 -8 -13 0 -5 -17
-37 -38 -71 -21 -35 -41 -70 -44 -79 -5 -13 -27 -16 -146 -16 l-141 0 1 231
c0 127 3 234 5 239 5 8 6 7 63 -28z m1457 -205 l-1 -239 -132 1 c-74 1 -137 4
-142 7 -5 3 -27 40 -51 81 -23 41 -50 89 -61 105 -10 17 -19 35 -19 42 -1 11
75 61 93 61 5 0 12 4 15 9 5 8 76 50 206 123 22 12 49 29 60 36 11 8 22 14 26
14 3 0 6 -108 6 -240z m-974 -73 c29 -18 69 -41 89 -52 20 -10 35 -22 33 -26
-3 -3 -33 -24 -67 -44 -59 -36 -69 -39 -150 -41 l-87 -3 20 37 c11 20 31 55
45 77 13 22 30 50 36 63 15 29 19 28 81 -11z m517 -10 c14 -23 39 -67 56 -98
l32 -56 -77 -1 c-78 0 -128 17 -204 70 l-28 20 78 45 c43 24 82 49 88 54 17
17 30 9 55 -34z m-286 -127 c7 0 20 -6 30 -13 15 -11 11 -13 -31 -12 -78 2
-80 4 -48 24 17 10 32 14 33 9 2 -4 9 -8 16 -8z m-858 -236 c1 -72 -1 -136 -5
-141 -3 -6 -37 -27 -76 -48 -38 -21 -90 -51 -115 -66 l-45 -28 -14 27 c-7 15
-33 60 -57 99 -24 40 -44 75 -44 78 0 2 -16 29 -35 59 -19 30 -35 58 -35 61 0
4 -8 19 -18 33 -44 63 -54 60 206 58 l237 -1 1 -131z m297 119 c-4 -10 -13
-29 -21 -41 -9 -13 -23 -38 -32 -55 -10 -18 -43 -47 -76 -67 -101 -62 -95 -66
-93 63 l1 113 114 2 c104 2 113 1 107 -15z m172 6 c-4 -6 -10 -8 -13 -5 -3 3
-19 -5 -36 -17 -54 -41 -60 -43 -46 -16 7 13 17 30 23 37 12 15 81 17 72 1z
m604 -10 c20 -11 43 -24 51 -30 8 -5 73 -42 143 -83 125 -72 130 -76 168 -141
21 -37 39 -69 39 -72 0 -3 8 -17 19 -31 10 -15 33 -54 51 -87 18 -33 39 -69
45 -80 9 -14 12 -78 11 -225 l-1 -205 -57 -95 c-31 -52 -65 -111 -77 -130 -11
-19 -30 -53 -42 -75 -21 -38 -41 -58 -84 -81 -11 -6 -81 -46 -155 -90 l-135
-79 -210 -1 c-209 -1 -210 -1 -242 24 -18 13 -33 21 -33 17 0 -4 -7 -2 -15 5
-8 7 -28 20 -44 29 -100 56 -198 114 -211 124 -9 7 -61 89 -115 182 l-100 170
-2 200 c-3 216 -5 205 59 313 21 34 38 66 38 71 0 5 3 11 8 13 6 3 36 55 66
115 6 13 14 23 19 23 4 0 7 6 7 13 0 10 61 57 74 57 3 0 41 23 86 50 45 28 83
50 85 50 2 0 29 15 60 33 l55 34 202 0 c181 1 205 -1 237 -18z m224 -17 l20
-33 -54 32 c-30 18 -56 34 -59 37 -3 2 13 2 35 0 32 -2 42 -9 58 -36z m303
-79 c0 -62 -1 -113 -4 -113 -2 0 -34 18 -71 40 -59 34 -74 49 -110 109 -22 38
-41 72 -41 74 0 3 51 4 113 4 l112 -2 1 -112z m554 110 c0 -4 -13 -27 -29 -52
-15 -25 -59 -100 -97 -166 -37 -66 -72 -122 -76 -123 -5 -2 -6 -7 -3 -12 3 -4
-2 -13 -10 -20 -8 -7 -15 -19 -15 -26 0 -14 -8 -10 -172 85 l-77 44 1 137 0
137 239 1 c131 0 239 -2 239 -5z m-2042 -335 c-17 -29 -33 -55 -35 -57 -2 -2
-2 14 -1 36 1 35 6 43 32 56 17 9 32 16 33 16 2 1 -11 -23 -29 -51z m1461 31
c21 -15 28 -30 29 -56 1 -20 0 -34 -2 -32 -11 11 -65 109 -60 109 2 0 17 -9
33 -21z m-1573 -146 c-1 -78 -5 -93 -29 -128 -15 -22 -27 -45 -27 -52 0 -7 -4
-13 -10 -13 -5 0 -10 -8 -10 -17 -1 -14 -6 -11 -25 12 -14 17 -25 33 -25 37 0
4 -16 35 -36 68 -20 34 -32 65 -28 70 5 4 36 22 69 40 33 19 74 42 90 52 17
10 31 18 32 18 1 0 0 -39 -1 -87z m1694 78 c0 -5 8 -11 18 -14 9 -3 42 -21 73
-39 103 -61 94 -51 73 -89 -11 -19 -21 -36 -24 -39 -3 -3 -16 -25 -29 -50 -13
-25 -30 -52 -37 -60 -12 -12 -14 -12 -14 3 0 9 -4 17 -10 17 -5 0 -10 4 -10
10 0 5 -13 31 -29 57 -25 42 -28 58 -29 131 0 45 3 82 9 82 5 0 9 -4 9 -9z
m-1935 -198 c31 -51 78 -134 96 -169 9 -18 2 -37 -46 -120 -86 -151 -75 -142
-135 -105 -27 17 -55 31 -60 31 -6 0 -10 3 -10 8 0 4 -10 12 -23 18 -12 6 -42
22 -67 36 -25 15 -80 46 -124 71 -69 40 -75 46 -55 52 12 4 27 12 33 17 14 11
143 88 149 88 2 0 49 27 103 60 55 32 101 59 104 60 3 0 18 -21 35 -47z m2363
-51 c81 -46 168 -96 195 -111 45 -25 46 -26 25 -36 -13 -5 -25 -12 -28 -16 -3
-3 -30 -19 -60 -35 -30 -16 -57 -31 -60 -34 -6 -6 -41 -26 -85 -49 -16 -9 -32
-19 -35 -22 -3 -3 -18 -12 -35 -21 -16 -8 -43 -22 -59 -31 -22 -12 -33 -13
-43 -5 -7 5 -11 14 -8 18 3 5 1 11 -4 14 -8 5 -22 28 -93 155 l-20 35 34 63
c18 35 36 63 41 63 4 0 7 5 7 11 0 6 12 30 26 54 17 30 30 42 40 38 8 -3 81
-44 162 -91z m-2120 -139 c1 -60 0 -64 -13 -47 -8 10 -15 25 -15 32 0 6 -5 12
-12 12 -7 0 -6 6 4 18 8 9 18 25 21 35 11 29 13 20 15 -50z m1702 21 c0 -8 5
-14 12 -14 7 0 5 -7 -5 -18 -9 -9 -21 -29 -26 -42 -8 -20 -10 -12 -9 42 1 56
4 66 15 57 7 -6 13 -18 13 -25z m-1728 -206 c18 -34 23 -60 24 -124 l1 -81
-36 19 c-20 11 -56 31 -81 45 -25 14 -55 31 -68 38 -19 11 -21 15 -9 26 7 8
20 29 28 47 7 17 17 32 21 32 5 0 8 5 8 10 0 6 12 29 26 51 l26 41 18 -30 c11
-17 29 -50 42 -74z m1818 52 c5 -5 11 -15 57 -98 14 -24 21 -48 16 -52 -4 -4
-33 -20 -63 -36 -30 -16 -57 -32 -60 -35 -3 -4 -15 -9 -27 -13 -13 -4 -23 -12
-23 -17 0 -5 -5 -9 -11 -9 -17 0 -8 178 9 189 8 5 13 11 12 15 -1 4 13 30 31
59 32 52 32 52 43 27 6 -14 13 -27 16 -30z m-1800 -347 c3 -3 5 -66 6 -142 l0
-137 -238 -1 -238 -1 41 76 c23 42 45 82 49 87 8 10 33 54 107 186 l37 66 115
-65 c64 -36 118 -67 121 -69z m1971 52 c13 -22 31 -53 39 -70 8 -16 17 -32 20
-35 6 -6 26 -41 49 -85 9 -16 19 -32 22 -35 14 -12 57 -100 51 -104 -4 -2
-112 -3 -239 -3 l-233 0 2 139 1 139 36 16 c20 9 38 20 41 23 3 4 32 21 64 39
32 18 68 38 79 46 18 13 21 12 32 -8 6 -12 22 -40 36 -62z m-1871 44 c0 -5 12
-28 26 -51 l26 -41 -33 19 c-28 17 -34 26 -35 57 -1 20 3 34 7 31 5 -3 9 -10
9 -15z m1507 -16 c-2 -30 -8 -40 -36 -55 l-34 -20 16 24 c9 13 24 38 33 56 9
17 18 32 20 32 2 0 2 -16 1 -37z m0 -243 l-1 -119 -113 1 c-62 1 -113 3 -113
5 0 3 18 36 40 73 34 58 51 75 101 105 33 19 64 35 70 35 5 0 9 5 9 10 0 6 2
10 4 10 2 0 3 -54 3 -120z m-1455 74 c68 -39 98 -62 98 -77 0 -5 9 -22 21 -38
11 -16 17 -29 14 -29 -4 0 1 -7 9 -16 9 -8 14 -19 11 -23 -2 -5 -53 -8 -113
-9 l-109 -1 0 115 c0 62 1 114 2 114 2 0 32 -16 67 -36z m298 -174 c3 -4 12
-10 20 -13 8 -3 -3 -5 -25 -5 -35 1 -42 5 -58 36 l-18 34 38 -23 c21 -13 40
-26 43 -29z m851 18 c-14 -24 -29 -34 -51 -36 -17 -2 -30 1 -30 8 0 6 5 8 10
5 6 -3 10 -1 10 4 0 6 5 11 11 11 6 0 22 9 36 20 35 28 38 25 14 -12z m-917
-157 c15 -25 47 -80 70 -121 l43 -74 -66 -39 c-36 -21 -91 -53 -121 -70 -106
-59 -128 -72 -175 -99 -26 -16 -49 -28 -50 -28 -2 0 -3 108 -3 240 l1 240 136
-2 137 -1 28 -46z m302 5 c72 -42 73 -43 54 -61 -11 -10 -20 -14 -20 -9 0 5
-4 4 -8 -2 -8 -13 -142 -88 -146 -82 -19 22 -106 176 -106 187 0 5 34 9 77 9
72 1 80 -2 149 -42z m219 33 c-3 -3 -18 -12 -33 -18 -25 -11 -34 -9 -63 8
l-34 21 67 -2 c37 -1 65 -5 63 -9z m295 -57 c-21 -37 -46 -82 -55 -99 -20 -38
-30 -40 -65 -13 -14 11 -29 20 -33 20 -4 0 -34 16 -65 36 -56 37 -57 37 -32
48 14 6 30 15 35 19 46 38 94 54 171 55 l82 1 -38 -67z m406 -175 l2 -238 -67
37 c-36 20 -128 72 -204 116 -150 87 -149 87 -107 148 9 14 19 30 21 36 2 5
22 40 43 76 l39 67 136 -2 136 -2 1 -238z m-663 51 c50 -29 94 -56 95 -60 2
-5 10 -8 17 -8 8 0 16 -4 20 -9 4 -8 -75 -154 -125 -231 -5 -8 -16 -28 -25
-45 -8 -16 -25 -46 -37 -65 -11 -19 -26 -45 -33 -57 -11 -22 -13 -20 -39 30
-16 28 -48 86 -72 127 -25 41 -49 84 -54 95 -6 11 -16 29 -22 40 -44 68 -59
98 -51 105 11 12 216 129 226 129 4 1 49 -23 100 -51z"/>
<path d="M1497 2328 c-19 -4 -47 -10 -63 -13 -44 -9 -45 -10 -99 -30 -27 -10
-64 -29 -82 -42 -17 -12 -36 -23 -41 -23 -19 0 -178 -165 -209 -217 -46 -74
-75 -142 -88 -202 -3 -12 -8 -31 -11 -43 -8 -33 -8 -237 0 -278 4 -19 8 -42 9
-50 2 -8 5 -19 8 -25 3 -5 12 -30 19 -55 8 -25 22 -57 32 -72 10 -14 18 -31
18 -37 0 -6 5 -11 10 -11 6 0 10 -6 10 -13 0 -11 49 -72 87 -110 72 -69 95
-87 178 -133 46 -26 148 -61 199 -70 57 -9 216 -8 276 1 60 10 58 9 80 17 8 3
38 14 65 23 28 10 57 24 66 31 9 8 19 11 22 7 4 -3 7 -1 7 5 0 6 8 13 18 16
10 3 36 23 59 44 22 20 49 44 59 53 61 54 151 194 171 264 28 104 34 144 34
255 0 69 -4 137 -10 153 -6 15 -9 27 -6 27 2 0 -3 19 -11 43 -9 23 -17 47 -18
52 -1 6 -18 40 -39 78 -79 141 -275 301 -407 332 -8 2 -15 4 -15 5 0 1 -13 3
-29 5 -16 2 -36 7 -45 11 -22 9 -213 11 -254 2z m158 -101 c59 -30 122 -134
151 -247 17 -71 32 -138 32 -150 1 -8 4 -44 8 -80 16 -147 4 -337 -30 -462
-38 -140 -66 -198 -118 -250 -21 -21 -41 -39 -46 -39 -38 -7 -104 -6 -137 2
-22 5 -52 11 -68 14 -32 5 -145 57 -192 90 -18 12 -55 45 -82 73 -64 68 -73
79 -73 92 0 5 -4 10 -9 10 -12 0 -71 141 -86 208 -13 53 -13 185 -1 256 8 50
60 170 94 221 33 49 127 145 141 145 6 0 11 4 11 9 0 7 122 74 139 77 4 0 19
6 35 13 16 6 31 9 34 6 3 -2 11 0 18 6 8 6 20 9 29 6 8 -4 17 -2 20 3 7 12
105 9 130 -3z"/>
</g>
</svg>
